<?xml version="1.0" encoding="UTF-8" standalone="no"?>
<svg width="80px" viewBox="0 0 85 100" version="1.1" xmlns="http://www.w3.org/2000/svg" xmlns:xlink="http://www.w3.org/1999/xlink" xmlns:sketch="http://www.bohemiancoding.com/sketch/ns">
    <!-- Generator: Sketch 3.4.2 (15857) - http://www.bohemiancoding.com/sketch -->
    <title>logo</title>
    <desc>Created with Sketch.</desc>
    <defs></defs>
    <g id="Page-1" stroke="none" stroke-width="1" fill="none" fill-rule="evenodd" sketch:type="MSPage">
        <g id="Artboard-1" sketch:type="MSArtboardGroup" transform="translate(-498.000000, -115.000000)">
            <g id="Banner" sketch:type="MSLayerGroup">
                <g id="logo" transform="translate(406.000000, 115.257812)" sketch:type="MSShapeGroup">
                    <g transform="translate(92.386328, 0.509766)">
                        <path d="M83.9211376,66.0968691 L83.9238255,31.8142607 C83.621902,27.1225004 80.9853589,23.0653769 77.1592661,20.8122363 L50.2332208,2.77439965 C47.9339259,1.0330617 45.0685616,4.26325641e-14 41.9619128,4.26325641e-14 C39.0862718,4.26325641e-14 36.4173661,0.885138532 34.2127836,2.39782753 L6.70405361,20.8480768 C2.91069039,23.1082379 0.300457549,27.147273 0.0242764602,31.8142607 L-1.77635684e-13,66.0968691 C0.0992590618,71.0196183 2.78988636,75.3065418 6.76403946,77.647109 L33.7218319,95.7088315 C36.0158177,97.4359113 38.8693115,98.4596515 41.9619128,98.4596515 C45.0681561,98.4596515 47.9331779,97.4268595 50.2323187,95.6859349 L77.1914493,77.6284038 C81.1482245,75.2837476 83.8248232,71.0065334 83.9211376,66.0968691 L83.9211376,66.0968691 Z" id="Oval-1" fill="#999"></path>
                        <path d="M35.0202332,51.5368258 L41.9858316,36.6141334 L48.9306646,51.5368258 L35.0202332,51.5368258 L35.0202332,51.5368258 L35.0202332,51.5368258 Z M32.148609,57.6888264 L26.7882436,69.1725611 L26.788244,69.1725607 L20.0210433,69.1725607 L21.3539768,66.3016271 L21.3566657,66.3014203 L21.2808822,66.4639384 C21.2808822,66.4639384 32.7410785,41.8874682 38.4711766,29.5992331 C38.5187402,29.4972326 38.6138675,29.2932316 38.6138675,29.2932316 L44.7315791,29.2870905 L44.7314437,29.2877413 C45.1123621,29.2873384 45.346779,29.2870904 45.346779,29.2870904 L62.6692055,66.4036222 L62.6749139,66.4041605 L63.9027822,69.1725607 L57.1389657,69.1725607 L57.1389657,69.1721709 L57.1381135,69.172561 L51.7937282,57.6888264 L32.148609,57.6888264 L32.148609,57.6888264 L32.148609,57.6888264 Z" id="Rectangle-1" fill="#ffffff"></path>
                    </g>
                </g>
            </g>
        </g>
    </g>
</svg>